<?xml version="1.0" encoding="UTF-8"?>
<svg xmlns="http://www.w3.org/2000/svg" version="1.1" viewBox="0 0 16 16">
  <defs>
    <style>
      .cls-1 {
        fill: #fff;
      }
    </style>
  </defs>
  <!-- Generator: Adobe Illustrator 28.6.0, SVG Export Plug-In . SVG Version: 1.2.0 Build 709)  -->
  <g>
    <g id="Layer_1">
      <path class="cls-1" d="M11,2h-2v3h2v-3Z"/>
      <path class="cls-1" d="M1.5,0h11.6c.4,0,.8.2,1.1.4l1.4,1.4c.3.3.4.7.4,1.1v11.6c0,.8-.7,1.5-1.5,1.5H1.5c-.8,0-1.5-.7-1.5-1.5h0V1.5C0,.7.7,0,1.5,0M1,1.5v13c0,.3.2.5.5.5h.5v-4.5c0-.8.7-1.5,1.5-1.5h9c.8,0,1.5.7,1.5,1.5v4.5h.5c.3,0,.5-.2.5-.5V2.9c0-.1,0-.3-.1-.4l-1.4-1.4c0,0-.2-.1-.4-.1h0v4.5c0,.8-.7,1.5-1.5,1.5h-7c-.8,0-1.5-.7-1.5-1.5V1h-1.5c-.3,0-.5.2-.5.5M4,5.5c0,.3.2.5.5.5h7c.3,0,.5-.2.5-.5V1H4v4.5ZM3,15h10v-4.5c0-.3-.2-.5-.5-.5H3.5c-.3,0-.5.2-.5.5v4.5Z"/>
    </g>
  </g>
</svg>